<?xml version="1.0" encoding="UTF-8"?>
<!DOCTYPE svg PUBLIC "-//W3C//DTD SVG 1.1//EN" "http://www.w3.org/Graphics/SVG/1.1/DTD/svg11.dtd">
<!-- Creator: CorelDRAW -->
<svg xmlns="http://www.w3.org/2000/svg" xml:space="preserve" width="177px" height="177px" style="shape-rendering:geometricPrecision; text-rendering:geometricPrecision; image-rendering:optimizeQuality; fill-rule:evenodd; clip-rule:evenodd"
viewBox="0 0 177 177"
 xmlns:xlink="http://www.w3.org/1999/xlink">
 <defs>
  <style type="text/css">
   <![CDATA[
    .str1 {stroke:#F58787;stroke-width:2.36}
    .str0 {stroke:white;stroke-width:17.7012;stroke-linecap:round;stroke-linejoin:round}
    .fil3 {fill:#780B0B}
    .fil2 {fill:red}
    .fil1 {fill:white}
    .fil0 {fill:black;fill-rule:nonzero}
   ]]>
  </style>
 </defs>
<symbol id="Símbolo3" viewBox="88.5 -2389.51 3504.6 2478">
 <polygon class="fil0" points="88.5,88.4953 3593.1,88.4953 3593.1,-2389.51 88.5,-2389.51 "/>
</symbol>
<symbol id="Símbolo4" viewBox="88.5 -2389.51 3504.6 2478">
 <polygon class="fil0" points="88.5,88.4953 3593.1,88.4953 3593.1,-2389.51 88.5,-2389.51 "/>
</symbol>
<symbol id="Símbolo5" viewBox="88.5 -2389.51 3504.6 2478">
 <polygon class="fil0" points="88.5,88.4953 3593.1,88.4953 3593.1,-2389.51 88.5,-2389.51 "/>
</symbol>
<symbol id="Símbolo11" viewBox="-173.849 -483.647 552.608 390.735">
 <polygon class="fil0" points="-173.849,-92.912 378.759,-92.912 378.759,-483.647 -173.849,-483.647 "/>
</symbol>
<symbol id="Símbolo8" viewBox="-173.849 -483.647 552.608 390.735">
 <polygon class="fil0" points="-173.849,-92.912 378.759,-92.912 378.759,-483.647 -173.849,-483.647 "/>
</symbol>
<symbol id="Símbolo1" viewBox="88.5 -2389.51 3504.6 2478">
 <polygon class="fil0" points="88.5,88.4953 3593.1,88.4953 3593.1,-2389.51 88.5,-2389.51 "/>
</symbol>
<symbol id="Fm0-136-0" viewBox="88.5 -2389.51 3504.6 2478">
 <polygon class="fil0" points="88.5,88.4953 3593.1,88.4953 3593.1,-2389.51 88.5,-2389.51 "/>
</symbol>
<symbol id="Símbolo10" viewBox="-173.849 -483.647 552.608 390.735">
 <polygon class="fil0" points="-173.849,-92.912 378.759,-92.912 378.759,-483.647 -173.849,-483.647 "/>
</symbol>
<symbol id="Símbolo6" viewBox="-173.849 -483.647 552.608 390.735">
 <polygon class="fil0" points="-173.849,-92.912 378.759,-92.912 378.759,-483.647 -173.849,-483.647 "/>
</symbol>
<symbol id="Símbolo7" viewBox="-173.849 -483.647 552.608 390.735">
 <polygon class="fil0" points="-173.849,-92.912 378.759,-92.912 378.759,-483.647 -173.849,-483.647 "/>
</symbol>
<symbol id="Símbolo2" viewBox="88.5 -2389.51 3504.6 2478">
 <polygon class="fil0" points="88.5,88.4953 3593.1,88.4953 3593.1,-2389.51 88.5,-2389.51 "/>
</symbol>
<symbol id="Símbolo9" viewBox="-173.849 -483.647 552.608 390.735">
 <polygon class="fil0" points="-173.849,-92.912 378.759,-92.912 378.759,-483.647 -173.849,-483.647 "/>
</symbol>
<symbol id="Símbolo12" viewBox="-173.849 -483.647 552.608 390.735">
 <polygon class="fil0" points="-173.849,-92.912 378.759,-92.912 378.759,-483.647 -173.849,-483.647 "/>
</symbol>
 <g id="Capa_x0020_1">
  <metadata id="CorelCorpID_0Corel-Layer"/>
  <path class="fil1 str0" d="M51.5518 27.6132l74.7117 0c9.38454,0 17.0604,7.67708 17.0604,17.0604l0 18.2369 8.82404 0 0 57.2642 0 29.2133 -30.5903 0 -66.1154 0 -29.7738 0 -0.81656 0 0 -86.4775 9.63942 0 0 -18.2369c0,-9.38336 7.67708,-17.0604 17.0604,-17.0604z"/>
  <rect class="fil2 str1" x="34.4915" y="27.612" width="108.833" height="108.833" rx="17.0604" ry="17.0604"/>
  <rect class="fil3" x="24.8525" y="62.9091" width="30.5903" height="86.4772"/>
  <rect class="fil3" x="121.557" y="62.9091" width="30.5903" height="86.4772"/>
  <path class="fil2 str1" d="M45.4925 100.348l86.8303 0c10.9032,0 19.8252,8.9208 19.8252,19.8252l0 29.2133 -126.479 0 0 -29.2133c0,-10.9044 8.9208,-19.8252 19.824,-19.8252z"/>
 </g>
</svg>
