<?xml version="1.0" encoding="utf-8"?>
<svg version="1.1" id="Icons" x="0px" y="0px" viewBox="0 0 32 32" style="enable-background:new 0 0 32 32;" xmlns="http://www.w3.org/2000/svg">
  <style type="text/css">
	.st0{fill:none;stroke:#000000;stroke-width:2;stroke-linecap:round;stroke-linejoin:round;stroke-miterlimit:10;}
</style>
  <path style="stroke: rgb(0, 0, 0); fill: rgb(81, 0, 0);" d="M 6.754 14.173 C 6.356 14.041 5.492 14.054 5.143 14.229 C 4.927 14.337 4.656 14.16 4.477 14.34 C 4.248 14.568 4.227 14.811 3.977 15.062 C 3.391 15.647 3.526 16.63 3.088 17.505 C 2.881 17.92 3.296 18.646 3.088 19.06 C 2.682 19.872 2.664 21.341 2.977 22.281 C 3.154 22.81 3.032 23.557 3.144 24.114 C 3.354 25.162 2.994 26.331 3.31 27.28 C 3.421 27.61 3.222 28.191 3.477 28.446 C 3.941 28.91 4.749 28.86 5.365 29.168 C 5.548 29.259 6.208 29.191 6.365 29.112 C 6.447 29.071 6.691 29.174 6.754 29.112 C 6.884 28.982 7.226 29.043 7.42 28.946 C 7.914 28.698 8.509 28.712 8.753 28.224 C 9.065 27.599 8.734 26.671 8.975 25.947 C 9.021 25.808 8.91 25.577 8.975 25.447 C 9.483 24.431 9.071 23.286 9.364 22.115 C 9.509 21.536 9.508 20.47 9.364 19.893 C 9.207 19.268 9.424 18.626 9.142 18.061 C 8.935 17.648 9.189 16.988 8.975 16.561 C 8.836 16.282 8.772 15.692 8.586 15.506 C 7.803 14.723 7.285 14.006 5.865 14.006"/>
  <path style="stroke: rgb(0, 0, 0); fill: rgb(81, 0, 0);" d="M 26.631 14.035 C 26.253 13.903 25.431 13.916 25.1 14.091 C 24.894 14.199 24.637 14.022 24.467 14.202 C 24.249 14.43 24.229 14.673 23.992 14.924 C 23.435 15.509 23.563 16.492 23.147 17.367 C 22.95 17.782 23.344 18.508 23.147 18.922 C 22.761 19.734 22.744 21.203 23.041 22.143 C 23.209 22.672 23.094 23.419 23.2 23.976 C 23.4 25.024 23.057 26.193 23.358 27.142 C 23.463 27.472 23.274 28.053 23.516 28.308 C 23.957 28.772 24.725 28.722 25.311 29.03 C 25.485 29.121 26.112 29.053 26.261 28.974 C 26.339 28.933 26.571 29.036 26.631 28.974 C 26.754 28.844 27.079 28.905 27.264 28.808 C 27.733 28.56 28.299 28.574 28.531 28.086 C 28.827 27.461 28.512 26.533 28.741 25.809 C 28.785 25.67 28.68 25.439 28.741 25.309 C 29.224 24.293 28.833 23.148 29.111 21.977 C 29.249 21.398 29.248 20.332 29.111 19.755 C 28.962 19.13 29.168 18.488 28.9 17.923 C 28.703 17.51 28.945 16.85 28.741 16.423 C 28.609 16.144 28.549 15.554 28.372 15.368 C 27.628 14.585 27.135 13.868 25.786 13.868"/>
  <path style="stroke: rgb(0, 0, 0); stroke-opacity: 0; fill: rgb(154, 0, 0);" d="M 22.415 4.177 C 22.99 4.177 23.145 4.486 23.636 4.732 C 24.243 5.035 24.699 5.412 24.969 5.954 C 25.056 6.128 24.985 6.366 25.08 6.509 C 25.805 7.596 25.858 8.757 25.858 10.119 C 25.858 10.73 25.556 11.767 25.747 12.34 C 25.91 12.828 26.191 13.406 26.191 13.895 C 26.191 13.975 26.242 14.345 26.191 14.395 C 25.93 14.657 25.118 14.357 24.858 14.617 C 24.738 14.737 24.522 14.731 24.358 14.895 C 24.231 15.023 24.147 15.273 24.025 15.395 C 23.655 15.765 23.585 16.442 23.359 16.894 C 23.22 17.172 23.389 17.753 23.192 17.949 C 23.094 18.047 23.257 18.432 23.192 18.56 C 22.983 18.979 23.12 19.533 23.026 20.004 C 22.664 21.81 22.803 23.899 22.803 25.836 C 22.803 26.419 22.859 27.005 22.859 27.613 C 22.859 27.801 22.902 28.125 22.803 28.224 C 22.234 28.793 20.92 28.723 20.082 28.723 C 18.445 28.723 16.961 28.779 15.362 28.779 C 13.914 28.779 12.094 28.949 10.752 28.501 C 10.553 28.435 9.692 28.552 9.53 28.39 C 9.455 28.315 9.51 28.036 9.419 27.946 C 9.257 27.784 9.343 27.549 9.253 27.28 C 9.07 26.733 9.004 25.584 9.197 25.003 C 9.319 24.636 9.075 24.147 9.197 23.781 C 9.412 23.137 9.904 21.641 9.53 20.893 C 8.823 19.479 9.519 17.427 8.753 15.895 C 8.608 15.604 8.458 15.155 8.253 14.951 C 7.65 14.348 6.703 14.178 6.198 13.673 C 6.039 13.514 5.885 13.193 5.754 13.062 C 5.535 12.843 5.905 11.594 6.032 11.341 C 6.148 11.109 6.004 10.509 6.032 10.285 C 6.197 8.965 5.605 7.03 6.198 5.843 C 6.585 5.068 7.536 4.782 7.92 4.399 C 7.974 4.344 8.341 4.383 8.42 4.343 C 8.981 4.063 9.807 4.121 10.475 4.121 C 12.423 4.121 14.697 4.398 16.639 4.121 C 17.067 4.06 17.47 3.954 17.916 3.954 C 18.114 3.954 18.717 4.054 18.916 3.954 C 19.698 3.563 20.741 2.923 21.693 3.399 C 21.858 3.482 21.944 3.706 22.026 3.788 C 22.142 3.904 22.637 3.915 22.637 4.121"/>
  <path class="st0" d="M9,29H5c-1.1,0-2-0.9-2-2V17c0-1.7,1.3-3,3-3h0c1.7,0,3,1.3,3,3V29z"/>
  <path class="st0" d="M27,29h-4V17c0-1.7,1.3-3,3-3h0c1.7,0,3,1.3,3,3v10C29,28.1,28.1,29,27,29z"/>
  <rect x="9" y="19" class="st0" width="14" height="10"/>
  <path class="st0" d="M6,14V7.8C6,5.7,7.7,4,9.8,4h12.3C24.3,4,26,5.7,26,7.8V14"/>
</svg>